<svg viewBox="0 0 500 500" fill="none" xmlns="http://www.w3.org/2000/svg">
<path d="M229.167 270.833H125C119.097 270.833 114.153 268.833 110.167 264.833C106.181 260.833 104.181 255.889 104.167 250C104.153 244.111 106.153 239.167 110.167 235.167C114.181 231.167 119.125 229.167 125 229.167H229.167V125C229.167 119.097 231.167 114.153 235.167 110.167C239.167 106.18 244.111 104.18 250 104.167C255.889 104.153 260.84 106.153 264.854 110.167C268.868 114.18 270.861 119.125 270.833 125V229.167H375C380.903 229.167 385.854 231.167 389.854 235.167C393.854 239.167 395.847 244.111 395.833 250C395.819 255.889 393.819 260.84 389.833 264.854C385.847 268.868 380.903 270.861 375 270.833H270.833V375C270.833 380.903 268.833 385.854 264.833 389.854C260.833 393.854 255.889 395.847 250 395.833C244.111 395.819 239.167 393.819 235.167 389.833C231.167 385.847 229.167 380.903 229.167 375V270.833Z" fill="#fdfdfd"/>
</svg>
